<svg xmlns="http://www.w3.org/2000/svg" width="72" height="72"><polygon fill="#D6D6C5" points="56.82,51 4.62,51 14.48,37.08 4.62,22 56.82,22 68.13,36.5"/><g fill="#A1A194"><path d="M26.878 32.792c.535 0 .991.078 1.367.234s.683.362.918.618c.236.256.408.548.517.876.107.328.162.668.162 1.02 0 .345-.055.683-.162 1.015-.108.332-.28.626-.517.882-.235.256-.542.462-.918.618-.376.155-.832.233-1.367.233h-1.98v3.072h-1.884v-8.568h3.864zm-.517 4.032c.216 0 .424-.016.624-.048s.376-.094.528-.186c.151-.093.273-.223.366-.391.092-.168.138-.388.138-.66 0-.271-.046-.491-.138-.66-.093-.168-.215-.298-.366-.39-.152-.092-.328-.154-.528-.186s-.408-.048-.624-.048h-1.464v2.567h1.464zM31.174 35.33c.191-.548.468-1.025.828-1.434.359-.408.802-.728 1.326-.96.523-.232 1.113-.349 1.77-.349.664 0 1.256.116 1.776.349.52.232.96.552 1.319.96.36.408.637.886.828 1.434.192.548.288 1.143.288 1.782 0 .624-.096 1.206-.288 1.746-.191.54-.468 1.01-.828 1.41-.359.4-.8.714-1.319.941-.521.229-1.112.343-1.776.343-.656 0-1.246-.114-1.77-.343-.524-.228-.967-.541-1.326-.941-.36-.4-.637-.87-.828-1.41-.192-.54-.288-1.122-.288-1.746 0-.639.095-1.234.288-1.782zm1.722 2.832c.084.341.218.646.402.918.184.272.424.49.72.654s.656.246 1.08.246.784-.082 1.08-.246.536-.382.72-.654c.185-.271.318-.577.402-.918.084-.34.126-.689.126-1.05 0-.376-.042-.74-.126-1.092-.084-.353-.218-.666-.402-.942-.184-.275-.424-.496-.72-.66-.296-.163-.656-.246-1.08-.246s-.784.083-1.08.246c-.296.164-.536.385-.72.66-.185.276-.318.59-.402.942-.084.352-.126.716-.126 1.092 0 .361.042.71.126 1.05zM42.273 39.248c.104.2.242.362.414.486s.374.216.606.276c.231.06.472.09.72.09.168 0 .349-.014.54-.042.192-.028.372-.082.54-.162s.308-.19.42-.33.168-.318.168-.534c0-.231-.074-.42-.222-.563-.148-.145-.342-.265-.582-.36s-.512-.18-.816-.252c-.304-.072-.611-.152-.924-.24-.32-.08-.632-.178-.936-.294-.305-.116-.576-.266-.816-.45s-.434-.414-.582-.689c-.148-.276-.222-.61-.222-1.002 0-.44.094-.822.282-1.146.188-.324.434-.594.737-.81.305-.216.648-.376 1.032-.48.384-.104.769-.156 1.152-.156.447 0 .878.051 1.29.15.412.101.777.262 1.098.486.32.224.574.51.762.857.188.349.282.771.282 1.267h-1.824c-.016-.256-.069-.469-.162-.637-.092-.168-.214-.3-.365-.396-.152-.096-.326-.164-.522-.204s-.41-.06-.642-.06c-.152 0-.305.016-.456.048-.152.032-.29.088-.414.168s-.227.18-.307.3-.119.272-.119.456c0 .168.031.304.096.408.063.104.189.2.378.288.188.088.448.176.78.264l1.302.336c.16.032.382.09.666.174s.565.219.846.402.522.43.727.738c.204.308.306.701.306 1.182 0 .392-.076.756-.228 1.092-.152.336-.379.626-.679.87s-.672.435-1.116.57c-.443.136-.958.204-1.542.204-.472 0-.93-.059-1.374-.175-.443-.115-.836-.298-1.176-.546-.34-.247-.61-.563-.81-.947-.2-.385-.296-.841-.288-1.368h1.824c.001.288.053.532.156.731zM48.189 34.376v-1.584h7.02v1.584h-2.567v6.984h-1.885v-6.984h-2.568z"/></g><g fill="#EFEFE8"><path d="M27.232 32.688c.535 0 .991.078 1.367.234s.683.362.918.618c.236.256.408.548.517.876.107.328.162.668.162 1.02 0 .345-.055.683-.162 1.015-.108.332-.28.626-.517.882-.235.256-.542.462-.918.618-.376.155-.832.233-1.367.233h-1.98v3.072h-1.884v-8.568h3.864zm-.516 4.032c.216 0 .424-.016.624-.048s.376-.094.528-.186c.151-.093.273-.223.366-.391.092-.168.138-.388.138-.66 0-.271-.046-.491-.138-.66-.093-.168-.215-.298-.366-.39-.152-.092-.328-.154-.528-.186s-.408-.048-.624-.048h-1.464v2.567h1.464zM31.528 35.226c.191-.548.468-1.025.828-1.434.359-.408.802-.728 1.326-.96.523-.232 1.113-.349 1.77-.349.664 0 1.256.116 1.776.349.52.232.96.552 1.319.96.36.408.637.886.828 1.434.192.548.288 1.143.288 1.782 0 .624-.096 1.206-.288 1.746-.191.54-.468 1.01-.828 1.41-.359.4-.8.714-1.319.941-.521.229-1.112.343-1.776.343-.656 0-1.246-.114-1.77-.343-.524-.228-.967-.541-1.326-.941-.36-.4-.637-.87-.828-1.41-.192-.54-.288-1.122-.288-1.746 0-.64.096-1.235.288-1.782zm1.722 2.832c.084.341.218.646.402.918.184.272.424.49.72.654s.656.246 1.08.246.784-.082 1.08-.246.536-.382.72-.654c.185-.271.318-.577.402-.918.084-.34.126-.689.126-1.05 0-.376-.042-.74-.126-1.092-.084-.353-.218-.666-.402-.942-.184-.275-.424-.496-.72-.66-.296-.163-.656-.246-1.08-.246s-.784.083-1.08.246c-.296.164-.536.385-.72.66-.185.276-.318.59-.402.942-.084.352-.126.716-.126 1.092 0 .36.042.71.126 1.05zM42.628 39.144c.104.2.242.362.414.486s.374.216.606.276c.231.06.472.09.72.09.168 0 .349-.014.54-.042.192-.028.372-.082.54-.162s.308-.19.42-.33.168-.318.168-.534c0-.231-.074-.42-.222-.563-.148-.145-.342-.265-.582-.36s-.512-.18-.816-.252c-.304-.072-.611-.152-.924-.24-.32-.08-.632-.178-.936-.294-.305-.116-.576-.266-.816-.45s-.434-.414-.582-.689c-.148-.276-.222-.61-.222-1.002 0-.44.094-.822.282-1.146.188-.324.434-.594.737-.81.305-.216.648-.376 1.032-.48.384-.104.769-.156 1.152-.156.447 0 .878.051 1.29.15.412.101.777.262 1.098.486.32.224.574.51.762.857.188.349.282.771.282 1.267h-1.824c-.016-.256-.069-.469-.162-.637-.092-.168-.214-.3-.365-.396-.152-.096-.326-.164-.522-.204s-.41-.06-.642-.06c-.152 0-.305.016-.456.048-.152.032-.29.088-.414.168s-.227.18-.307.3-.119.272-.119.456c0 .168.031.304.096.408.063.104.189.2.378.288.188.088.448.176.78.264l1.302.336c.16.032.382.09.666.174s.565.219.846.402.522.43.727.738c.204.308.306.701.306 1.182 0 .392-.076.756-.228 1.092-.152.336-.379.626-.679.87s-.672.435-1.116.57c-.443.136-.958.204-1.542.204-.472 0-.93-.059-1.374-.175-.443-.115-.836-.298-1.176-.546-.34-.247-.61-.563-.81-.947-.2-.385-.296-.841-.288-1.368h1.824c.001.287.052.531.156.731zM48.544 34.271v-1.584h7.02v1.584h-2.567v6.984h-1.885v-6.984h-2.568z"/></g></svg>