<?xml version="1.0" encoding="utf-8"?>
<!-- Generator: Adobe Illustrator 15.1.0, SVG Export Plug-In . SVG Version: 6.00 Build 0)  -->
<!DOCTYPE svg PUBLIC "-//W3C//DTD SVG 1.1//EN" "http://www.w3.org/Graphics/SVG/1.1/DTD/svg11.dtd">
<svg version="1.1" id="Layer_1" xmlns="http://www.w3.org/2000/svg" xmlns:xlink="http://www.w3.org/1999/xlink" x="0px" y="0px"
	 width="72px" height="72px" viewBox="0 0 72 72" enable-background="new 0 0 72 72" xml:space="preserve">
<polygon fill="#D6D6C5" points="56.82,51 4.62,51 14.48,37.08 4.62,22 56.82,22 68.13,36.5 "/>
<g>
	<g>
		<path fill="#A1A194" d="M26.878,32.792c0.535,0,0.991,0.078,1.367,0.234s0.683,0.362,0.918,0.618
			c0.236,0.256,0.408,0.548,0.517,0.876c0.107,0.328,0.162,0.668,0.162,1.02c0,0.345-0.055,0.683-0.162,1.015
			c-0.108,0.332-0.28,0.626-0.517,0.882c-0.235,0.256-0.542,0.462-0.918,0.618c-0.376,0.155-0.832,0.233-1.367,0.233h-1.98v3.072
			h-1.884v-8.568H26.878z M26.361,36.824c0.216,0,0.424-0.016,0.624-0.048s0.376-0.094,0.528-0.186
			c0.151-0.093,0.273-0.223,0.366-0.391c0.092-0.168,0.138-0.388,0.138-0.66c0-0.271-0.046-0.491-0.138-0.66
			c-0.093-0.168-0.215-0.298-0.366-0.39c-0.152-0.092-0.328-0.154-0.528-0.186c-0.2-0.032-0.408-0.048-0.624-0.048h-1.464v2.567
			H26.361z"/>
		<path fill="#A1A194" d="M31.174,35.33c0.191-0.548,0.468-1.025,0.828-1.434c0.359-0.408,0.802-0.728,1.326-0.96
			c0.523-0.232,1.113-0.349,1.77-0.349c0.664,0,1.256,0.116,1.776,0.349c0.52,0.232,0.96,0.552,1.319,0.96
			c0.36,0.408,0.637,0.886,0.828,1.434c0.192,0.548,0.288,1.143,0.288,1.782c0,0.624-0.096,1.206-0.288,1.746
			c-0.191,0.54-0.468,1.01-0.828,1.41c-0.359,0.4-0.8,0.714-1.319,0.941c-0.521,0.229-1.112,0.343-1.776,0.343
			c-0.656,0-1.246-0.114-1.77-0.343c-0.524-0.228-0.967-0.541-1.326-0.941c-0.36-0.4-0.637-0.87-0.828-1.41
			c-0.192-0.54-0.288-1.122-0.288-1.746C30.886,36.473,30.981,35.878,31.174,35.33z M32.896,38.162
			c0.084,0.341,0.218,0.646,0.402,0.918c0.184,0.272,0.424,0.49,0.72,0.654s0.656,0.246,1.08,0.246s0.784-0.082,1.08-0.246
			s0.536-0.382,0.72-0.654c0.185-0.271,0.318-0.577,0.402-0.918c0.084-0.34,0.126-0.689,0.126-1.05c0-0.376-0.042-0.74-0.126-1.092
			c-0.084-0.353-0.218-0.666-0.402-0.942c-0.184-0.275-0.424-0.496-0.72-0.66c-0.296-0.163-0.656-0.246-1.08-0.246
			s-0.784,0.083-1.08,0.246c-0.296,0.164-0.536,0.385-0.72,0.66c-0.185,0.276-0.318,0.59-0.402,0.942
			c-0.084,0.352-0.126,0.716-0.126,1.092C32.77,37.473,32.812,37.822,32.896,38.162z"/>
		<path fill="#A1A194" d="M42.273,39.248c0.104,0.2,0.242,0.362,0.414,0.486s0.374,0.216,0.606,0.276
			c0.231,0.06,0.472,0.09,0.72,0.09c0.168,0,0.349-0.014,0.54-0.042c0.192-0.028,0.372-0.082,0.54-0.162s0.308-0.19,0.42-0.33
			s0.168-0.318,0.168-0.534c0-0.231-0.074-0.42-0.222-0.563c-0.148-0.145-0.342-0.265-0.582-0.36s-0.512-0.18-0.816-0.252
			c-0.304-0.072-0.611-0.152-0.924-0.24c-0.32-0.08-0.632-0.178-0.936-0.294c-0.305-0.116-0.576-0.266-0.816-0.45
			c-0.24-0.184-0.434-0.414-0.582-0.689c-0.148-0.276-0.222-0.61-0.222-1.002c0-0.44,0.094-0.822,0.282-1.146
			c0.188-0.324,0.434-0.594,0.737-0.81c0.305-0.216,0.648-0.376,1.032-0.48c0.384-0.104,0.769-0.156,1.152-0.156
			c0.447,0,0.878,0.051,1.29,0.15c0.412,0.101,0.777,0.262,1.098,0.486c0.32,0.224,0.574,0.51,0.762,0.857
			c0.188,0.349,0.282,0.771,0.282,1.267h-1.824c-0.016-0.256-0.069-0.469-0.162-0.637c-0.092-0.168-0.214-0.3-0.365-0.396
			c-0.152-0.096-0.326-0.164-0.522-0.204s-0.41-0.06-0.642-0.06c-0.152,0-0.305,0.016-0.456,0.048
			c-0.152,0.032-0.29,0.088-0.414,0.168s-0.227,0.18-0.307,0.3s-0.119,0.272-0.119,0.456c0,0.168,0.031,0.304,0.096,0.408
			c0.063,0.104,0.189,0.2,0.378,0.288c0.188,0.088,0.448,0.176,0.78,0.264s0.766,0.2,1.302,0.336c0.16,0.032,0.382,0.09,0.666,0.174
			s0.565,0.219,0.846,0.402s0.522,0.43,0.727,0.738c0.204,0.308,0.306,0.701,0.306,1.182c0,0.392-0.076,0.756-0.228,1.092
			c-0.152,0.336-0.379,0.626-0.679,0.87s-0.672,0.435-1.116,0.57c-0.443,0.136-0.958,0.204-1.542,0.204
			c-0.472,0-0.93-0.059-1.374-0.175c-0.443-0.115-0.836-0.298-1.176-0.546c-0.34-0.247-0.61-0.563-0.81-0.947
			c-0.2-0.385-0.296-0.841-0.288-1.368h1.824C42.118,38.805,42.17,39.049,42.273,39.248z"/>
		<path fill="#A1A194" d="M48.189,34.376v-1.584h7.02v1.584h-2.567v6.984h-1.885v-6.984H48.189z"/>
	</g>
	<g>
		<path fill="#EFEFE8" d="M27.232,32.688c0.535,0,0.991,0.078,1.367,0.234s0.683,0.362,0.918,0.618
			c0.236,0.256,0.408,0.548,0.517,0.876c0.107,0.328,0.162,0.668,0.162,1.02c0,0.345-0.055,0.683-0.162,1.015
			c-0.108,0.332-0.28,0.626-0.517,0.882c-0.235,0.256-0.542,0.462-0.918,0.618c-0.376,0.155-0.832,0.233-1.367,0.233h-1.98v3.072
			h-1.884v-8.568H27.232z M26.716,36.72c0.216,0,0.424-0.016,0.624-0.048s0.376-0.094,0.528-0.186
			c0.151-0.093,0.273-0.223,0.366-0.391c0.092-0.168,0.138-0.388,0.138-0.66c0-0.271-0.046-0.491-0.138-0.66
			c-0.093-0.168-0.215-0.298-0.366-0.39c-0.152-0.092-0.328-0.154-0.528-0.186c-0.2-0.032-0.408-0.048-0.624-0.048h-1.464v2.567
			H26.716z"/>
		<path fill="#EFEFE8" d="M31.528,35.226c0.191-0.548,0.468-1.025,0.828-1.434c0.359-0.408,0.802-0.728,1.326-0.96
			c0.523-0.232,1.113-0.349,1.77-0.349c0.664,0,1.256,0.116,1.776,0.349c0.52,0.232,0.96,0.552,1.319,0.96
			c0.36,0.408,0.637,0.886,0.828,1.434c0.192,0.548,0.288,1.143,0.288,1.782c0,0.624-0.096,1.206-0.288,1.746
			c-0.191,0.54-0.468,1.01-0.828,1.41c-0.359,0.4-0.8,0.714-1.319,0.941c-0.521,0.229-1.112,0.343-1.776,0.343
			c-0.656,0-1.246-0.114-1.77-0.343c-0.524-0.228-0.967-0.541-1.326-0.941c-0.36-0.4-0.637-0.87-0.828-1.41
			c-0.192-0.54-0.288-1.122-0.288-1.746C31.24,36.368,31.336,35.773,31.528,35.226z M33.25,38.058
			c0.084,0.341,0.218,0.646,0.402,0.918c0.184,0.272,0.424,0.49,0.72,0.654s0.656,0.246,1.08,0.246s0.784-0.082,1.08-0.246
			s0.536-0.382,0.72-0.654c0.185-0.271,0.318-0.577,0.402-0.918c0.084-0.34,0.126-0.689,0.126-1.05c0-0.376-0.042-0.74-0.126-1.092
			c-0.084-0.353-0.218-0.666-0.402-0.942c-0.184-0.275-0.424-0.496-0.72-0.66c-0.296-0.163-0.656-0.246-1.08-0.246
			s-0.784,0.083-1.08,0.246c-0.296,0.164-0.536,0.385-0.72,0.66c-0.185,0.276-0.318,0.59-0.402,0.942
			c-0.084,0.352-0.126,0.716-0.126,1.092C33.124,37.368,33.166,37.718,33.25,38.058z"/>
		<path fill="#EFEFE8" d="M42.628,39.144c0.104,0.2,0.242,0.362,0.414,0.486s0.374,0.216,0.606,0.276
			c0.231,0.06,0.472,0.09,0.72,0.09c0.168,0,0.349-0.014,0.54-0.042c0.192-0.028,0.372-0.082,0.54-0.162s0.308-0.19,0.42-0.33
			s0.168-0.318,0.168-0.534c0-0.231-0.074-0.42-0.222-0.563c-0.148-0.145-0.342-0.265-0.582-0.36s-0.512-0.18-0.816-0.252
			c-0.304-0.072-0.611-0.152-0.924-0.24c-0.32-0.08-0.632-0.178-0.936-0.294c-0.305-0.116-0.576-0.266-0.816-0.45
			c-0.24-0.184-0.434-0.414-0.582-0.689c-0.148-0.276-0.222-0.61-0.222-1.002c0-0.44,0.094-0.822,0.282-1.146
			c0.188-0.324,0.434-0.594,0.737-0.81c0.305-0.216,0.648-0.376,1.032-0.48c0.384-0.104,0.769-0.156,1.152-0.156
			c0.447,0,0.878,0.051,1.29,0.15c0.412,0.101,0.777,0.262,1.098,0.486c0.32,0.224,0.574,0.51,0.762,0.857
			c0.188,0.349,0.282,0.771,0.282,1.267h-1.824c-0.016-0.256-0.069-0.469-0.162-0.637c-0.092-0.168-0.214-0.3-0.365-0.396
			c-0.152-0.096-0.326-0.164-0.522-0.204s-0.41-0.06-0.642-0.06c-0.152,0-0.305,0.016-0.456,0.048
			c-0.152,0.032-0.29,0.088-0.414,0.168s-0.227,0.18-0.307,0.3s-0.119,0.272-0.119,0.456c0,0.168,0.031,0.304,0.096,0.408
			c0.063,0.104,0.189,0.2,0.378,0.288c0.188,0.088,0.448,0.176,0.78,0.264s0.766,0.2,1.302,0.336c0.16,0.032,0.382,0.09,0.666,0.174
			s0.565,0.219,0.846,0.402s0.522,0.43,0.727,0.738c0.204,0.308,0.306,0.701,0.306,1.182c0,0.392-0.076,0.756-0.228,1.092
			c-0.152,0.336-0.379,0.626-0.679,0.87s-0.672,0.435-1.116,0.57c-0.443,0.136-0.958,0.204-1.542,0.204
			c-0.472,0-0.93-0.059-1.374-0.175c-0.443-0.115-0.836-0.298-1.176-0.546c-0.34-0.247-0.61-0.563-0.81-0.947
			c-0.2-0.385-0.296-0.841-0.288-1.368h1.824C42.473,38.7,42.524,38.944,42.628,39.144z"/>
		<path fill="#EFEFE8" d="M48.544,34.271v-1.584h7.02v1.584h-2.567v6.984h-1.885v-6.984H48.544z"/>
	</g>
</g>
</svg>
